<svg xmlns="http://www.w3.org/2000/svg" width="129.966" height="24.126" viewBox="0 0 129.966 24.126">
  <path id="Path_3941" data-name="Path 3941" d="M749.263,261H731.871l-2.084,11.813h5.906l1.044-5.907h8.86l-2.084,11.813h-17.72L728.918,261h-5.906l-1.562,8.86h-8.86l1.562-8.86H684.619l-3.124,17.72h-5.907L678.712,261H645.337l-3.793,5.907-7.383,11.485-3.327-11.485L629.117,261H622.6l1.716,5.907,3.422,11.813,1.713,5.907h7.219l3.8-5.907,7.593-11.813h5.985l-3.127,17.72h35.439l1.565-8.86h11.813l1.04-5.907H688.963l.522-2.953H707.2l-1.562,8.86h14.766l-.522,2.953H705.121l-1.044,5.907H745.1l3.862-3.281,3.009-17.063Zm-79.581,17.72H657.869l2.084-11.813h11.813Z" transform="translate(-622.267 -260.75)" fill="#ea5f57" stroke="#0d111d" stroke-width="0.5"/>
</svg>
