<svg width="46" height="42" viewBox="0 0 46 42" fill="none" xmlns="http://www.w3.org/2000/svg">
<path d="M7 37V12.5294H14.5294V5H31.4706V20.0588H39V37H25.8235V29.4706H20.1765V37H7ZM8.88235 35.1176H14.5294V29.4706H8.88235V35.1176ZM8.88235 27.5882H14.5294V21.9412H8.88235V27.5882ZM8.88235 20.0588H14.5294V14.4118H8.88235V20.0588ZM16.4118 27.5882H22.0588V21.9412H16.4118V27.5882ZM16.4118 20.0588H22.0588V14.4118H16.4118V20.0588ZM16.4118 12.5294H22.0588V6.88235H16.4118V12.5294ZM23.9412 27.5882H29.5882V21.9412H23.9412V27.5882ZM23.9412 20.0588H29.5882V14.4118H23.9412V20.0588ZM23.9412 12.5294H29.5882V6.88235H23.9412V12.5294ZM31.4706 35.1176H37.1176V29.4706H31.4706V35.1176ZM31.4706 27.5882H37.1176V21.9412H31.4706V27.5882Z" fill="#5F6368"/>
</svg>
