<svg width="46" height="42" viewBox="0 0 46 42" fill="none" xmlns="http://www.w3.org/2000/svg">
<path d="M5.11597 26.9914C4.86975 26.7451 4.74664 26.3758 4.78768 26.0065C4.95182 24.0367 5.40322 22.108 6.10083 20.2614C7.00363 17.8813 9.09648 16.1578 11.5587 15.6243C12.4204 16.0757 13.4463 16.3219 14.4722 16.3219C15.5392 16.3219 16.524 16.0757 17.3858 15.6243C19.1914 15.9936 20.7918 17.0196 21.8587 18.4969L22.7615 17.5941C21.7356 16.2809 20.3404 15.255 18.74 14.6805C20.0942 13.4904 20.9149 11.7669 20.9149 9.83821C20.997 6.26806 18.0834 3.35449 14.5133 3.35449C10.9431 3.35449 8.02954 6.26806 8.02954 9.83821C8.02954 11.7669 8.8913 13.4904 10.2045 14.6805C7.82436 15.5422 5.85462 17.3889 4.95182 19.81C4.21317 21.7798 3.72073 23.8316 3.51555 25.9244C3.43348 26.622 3.6797 27.3607 4.17213 27.8531C4.66457 28.3866 5.32115 28.6738 6.01876 28.6738H18.4117V27.4017H6.01876C5.69047 27.4017 5.36218 27.2786 5.11597 26.9914ZM9.30166 9.83821C9.30166 6.96568 11.6407 4.62662 14.5133 4.62662C17.3858 4.62662 19.7249 6.96568 19.7249 9.83821C19.7249 12.7108 17.3858 15.0498 14.5133 15.0498C11.6407 15.0498 9.30166 12.7108 9.30166 9.83821Z" fill="#0D111D"/>
<path d="M31.0922 22.4775C28.4659 22.4775 26.332 24.6114 26.332 27.2377C26.332 29.8641 28.4659 31.9979 31.0922 31.9979C33.7186 31.9979 35.8524 29.8641 35.8524 27.2377C35.8935 24.6114 33.7596 22.4775 31.0922 22.4775ZM31.0922 30.7669C29.1635 30.7669 27.5631 29.2075 27.5631 27.2377C27.5631 25.268 29.1225 23.7086 31.0922 23.7086C33.0209 23.7086 34.5803 25.268 34.5803 27.2377C34.5803 29.2075 33.0209 30.7669 31.0922 30.7669Z" fill="#0D111D"/>
<path d="M41.9252 24.6109L39.7503 24.3646C39.6272 23.9543 39.4631 23.5439 39.2579 23.1335L40.6121 21.4511C40.8172 21.2048 40.7762 20.8355 40.571 20.5893L37.7395 17.7578C37.4933 17.5116 37.165 17.5116 36.8778 17.7168L35.1953 19.071C34.826 18.8658 34.4156 18.7016 33.9642 18.5785L33.718 16.4036C33.6769 16.0753 33.4307 15.8291 33.1024 15.8291H29.0809C28.7526 15.8291 28.4653 16.0753 28.4653 16.4036L28.2191 18.5785C27.8088 18.7016 27.3984 18.8658 26.988 19.071L25.3056 17.7168C25.0593 17.5116 24.69 17.5526 24.4438 17.7578L21.6123 20.5893C21.3661 20.8355 21.3661 21.1638 21.5713 21.4511L22.9255 23.1335C22.7203 23.5029 22.5561 23.9132 22.433 24.3646L20.2581 24.6109C19.9298 24.6519 19.6836 24.8981 19.6836 25.2264V29.2479C19.6836 29.5762 19.9298 29.8635 20.2581 29.8635L22.433 30.1097C22.5561 30.5201 22.7203 30.9304 22.9255 31.3408L21.5713 33.0233C21.3661 33.2695 21.4071 33.6388 21.6123 33.885L24.4438 36.7165C24.69 36.9628 25.0183 36.9628 25.3056 36.7576L26.988 35.4034C27.3574 35.6086 27.7677 35.7727 28.2191 35.8958L28.4653 38.0707C28.5064 38.399 28.7526 38.6452 29.0809 38.6452H33.1024C33.4307 38.6452 33.718 38.399 33.718 38.0707L33.9642 35.8958C34.3746 35.7727 34.7849 35.6086 35.1953 35.4034L36.8778 36.7576C37.124 36.9628 37.4933 36.9217 37.7395 36.7165L40.571 33.885C40.8172 33.6388 40.8172 33.3105 40.6121 33.0233L39.2579 31.3408C39.4631 30.9715 39.6272 30.5611 39.7503 30.1097L41.9252 29.8635C42.2535 29.8225 42.4997 29.5762 42.4997 29.2479V25.2264C42.4997 24.8981 42.2535 24.6109 41.9252 24.6109ZM41.2276 28.6734L39.2168 28.8786C38.9706 28.9197 38.7244 29.0838 38.6834 29.33C38.5192 29.9456 38.273 30.5201 37.9857 31.0535C37.8626 31.2998 37.8626 31.546 38.0268 31.7512L39.2989 33.3516L37.2471 35.4034L35.6467 34.1313C35.4415 33.9671 35.1542 33.9671 34.9491 34.0902C34.4156 34.3775 33.8411 34.6237 33.2255 34.7878C32.9793 34.8699 32.7741 35.0751 32.7741 35.3213L32.569 37.3321H29.6964L29.4502 35.3623C29.4092 35.1161 29.245 34.8699 28.9988 34.8289C28.3833 34.6647 27.8088 34.4185 27.2753 34.1313C27.0291 34.0081 26.7829 34.0081 26.5777 34.1723L25.0183 35.4444L22.9665 33.3926L24.2386 31.8332C24.4028 31.628 24.4438 31.3408 24.2796 31.1356C23.9924 30.6021 23.7462 30.0276 23.582 29.4121C23.5 29.1659 23.2948 28.9607 23.0486 28.9607L21.0378 28.7555V25.883L23.0486 25.6778C23.2948 25.6368 23.541 25.4726 23.582 25.2264C23.7462 24.6109 23.9924 24.0363 24.2796 23.5029C24.4028 23.2567 24.4028 23.0104 24.2386 22.8053L22.9665 21.2459L25.0183 19.1941L26.6187 20.4662C26.8239 20.6303 27.1111 20.6714 27.3163 20.5072C27.8498 20.22 28.4243 19.9738 29.0399 19.8096C29.2861 19.7275 29.4913 19.5224 29.4913 19.2761L29.6964 17.2654H32.569L32.7741 19.2761C32.8152 19.5224 32.9793 19.7686 33.2255 19.8096C33.8411 19.9738 34.4156 20.22 34.9491 20.5072C35.1542 20.6303 35.4415 20.6303 35.6467 20.4662L37.2471 19.1941L39.2989 21.2459L38.0268 22.8053C37.8626 23.0104 37.8216 23.2977 37.9857 23.5029C38.273 24.0363 38.5192 24.6109 38.6834 25.2264C38.7654 25.4726 38.9706 25.6778 39.2168 25.6778L41.2276 25.883V28.6734Z" fill="#0D111D"/>
</svg>
