<svg width="51" height="27" viewBox="0 0 51 27" fill="none" xmlns="http://www.w3.org/2000/svg">
<path d="M12.3041 19.9711C10.9662 19.9711 9.87744 21.0598 9.87744 22.3978C9.87744 23.7357 10.9662 24.8245 12.3041 24.8245C13.6421 24.8245 14.7308 23.7357 14.7308 22.3978C14.7308 21.0598 13.6421 19.9711 12.3041 19.9711ZM12.3041 23.821C11.5171 23.821 10.8744 23.1782 10.8744 22.3912C10.8744 21.6042 11.5171 20.9614 12.3041 20.9614C13.0912 20.9614 13.7339 21.6042 13.7339 22.3912C13.7274 23.1848 13.0912 23.821 12.3041 23.821Z" fill="black"/>
<path d="M45.1822 20.1022C43.9164 20.1022 42.8867 21.1319 42.8867 22.3977C42.8867 23.6635 43.9164 24.6932 45.1822 24.6932C46.4481 24.6932 47.4778 23.6635 47.4778 22.3977C47.4712 21.1319 46.4481 20.1022 45.1822 20.1022ZM45.1822 23.6897C44.4674 23.6897 43.8902 23.1126 43.8902 22.3977C43.8902 21.6828 44.4674 21.1056 45.1822 21.1056C45.8971 21.1056 46.4743 21.6828 46.4743 22.3977C46.4743 23.1126 45.8906 23.6897 45.1822 23.6897Z" fill="black"/>
<path d="M50.5475 13.6682L40.7488 12.7369L40.1258 8.27045C40.093 8.02122 39.8765 7.83758 39.6273 7.83758H32.7014V0.498457C32.7014 0.222994 32.4784 0 32.2029 0H0.498457C0.222994 0 0 0.222994 0 0.498457V17.2689C0 17.5444 0.222994 17.7674 0.498457 17.7674H2.51852V20.358C2.51852 20.6335 2.74151 20.8565 3.01698 20.8565H8.53935C8.34259 21.3353 8.23765 21.8534 8.23765 22.3978C8.23765 24.6408 10.061 26.4641 12.304 26.4641C14.5471 26.4641 16.3704 24.6408 16.3704 22.3978C16.3704 21.8534 16.2654 21.3353 16.0687 20.8565H31.711V21.7288C31.711 22.0042 31.934 22.2272 32.2095 22.2272H41.1227C41.1227 22.2863 41.1161 22.3387 41.1161 22.3978C41.1161 24.6408 42.9394 26.4641 45.1825 26.4641C47.4255 26.4641 49.2488 24.6408 49.2488 22.3978C49.2488 22.3387 49.2488 22.2863 49.2423 22.2272H50.5015C50.777 22.2272 51 22.0042 51 21.7288V14.1667C51 13.9043 50.8098 13.6879 50.5475 13.6682ZM0.996914 0.996914H31.7045V8.29012C31.7045 8.29668 31.7045 8.3098 31.7045 8.31636C31.7045 8.32292 31.7045 8.33603 31.7045 8.34259V16.7704H0.996914V0.996914ZM12.304 25.4606C10.6119 25.4606 9.24113 24.0833 9.24113 22.3978C9.24113 20.7056 10.6184 19.3349 12.304 19.3349C13.9961 19.3349 15.3669 20.7122 15.3669 22.3978C15.3669 24.0833 13.9896 25.4606 12.304 25.4606ZM15.4718 19.853C14.7242 18.9282 13.5829 18.3314 12.304 18.3314C11.0251 18.3314 9.87732 18.9282 9.12963 19.853C9.11651 19.853 9.10995 19.853 9.09684 19.853H3.51543V17.7674H31.7045V19.853H15.4718ZM45.1825 25.4606C43.4904 25.4606 42.1196 24.0833 42.1196 22.3978C42.1196 20.7056 43.4969 19.3349 45.1825 19.3349C46.8746 19.3349 48.2454 20.7122 48.2454 22.3978C48.2454 24.0833 46.8681 25.4606 45.1825 25.4606ZM50.0031 21.2238H49.0783C48.5733 19.5513 47.0189 18.3248 45.1825 18.3248C43.3461 18.3248 41.7917 19.5448 41.2867 21.2238H32.7014V8.84105H39.1944L39.811 13.2681C39.8438 13.4977 40.0274 13.6748 40.2569 13.6944L49.9965 14.6192V21.2238H50.0031Z" fill="black"/>
<path d="M38.6238 9.89032C38.5976 9.6411 38.3811 9.44434 38.1253 9.44434H33.9081C33.6327 9.44434 33.4097 9.66733 33.4097 9.94279V13.8911C33.4097 14.0288 33.4621 14.16 33.5671 14.2518C33.6589 14.3436 33.7835 14.3896 33.9147 14.3896C33.9212 14.3896 33.9278 14.3896 33.9344 14.3896L38.5844 14.1862C38.7222 14.1797 38.8533 14.1141 38.9452 14.0092C39.037 13.9042 39.0763 13.7665 39.0632 13.6288L38.6238 9.89032ZM34.4131 13.373V10.4478H37.6793L38.0007 13.2156L34.4131 13.373Z" fill="black"/>
</svg>
