<svg width="51" height="30" viewBox="0 0 51 30" fill="none" xmlns="http://www.w3.org/2000/svg">
<path d="M44.8172 22.2576C43.4718 22.2576 42.3774 23.352 42.3774 24.6973C42.3774 26.0426 43.4718 27.137 44.8172 27.137C46.1625 27.137 47.2569 26.0426 47.2569 24.6973C47.2569 23.352 46.1625 22.2576 44.8172 22.2576ZM44.8172 26.0705C44.0574 26.0705 43.4439 25.4571 43.4439 24.6973C43.4439 23.9375 44.0574 23.3241 44.8172 23.3241C45.5769 23.3241 46.1904 23.9375 46.1904 24.6973C46.1904 25.4501 45.57 26.0705 44.8172 26.0705Z" fill="black"/>
<path d="M50.5193 15.4125L40.1052 14.4227L39.443 9.68272C39.4082 9.41784 39.1781 9.22266 38.9132 9.22266H31.0225C30.7298 9.22266 30.4928 9.45966 30.4928 9.75242V18.8142H0.965312C0.672547 18.8142 0.435547 19.0512 0.435547 19.344V22.5226C0.435547 22.8153 0.672547 23.0523 0.965312 23.0523H3.4329C3.22379 23.5612 3.11226 24.1119 3.11226 24.6904C3.11226 27.0744 5.05008 29.0122 7.43403 29.0122C9.81797 29.0122 11.7558 27.0744 11.7558 24.6904C11.7558 24.1119 11.6443 23.5542 11.4351 23.0523H13.4566C13.2475 23.5612 13.136 24.1119 13.136 24.6904C13.136 27.0744 15.0738 29.0122 17.4577 29.0122C19.8417 29.0122 21.7795 27.0744 21.7795 24.6904C21.7795 24.1119 21.668 23.5542 21.4589 23.0523H30.4997V23.9794C30.4997 24.2722 30.7367 24.5092 31.0295 24.5092H40.5025C40.5025 24.5719 40.4956 24.6277 40.4956 24.6904C40.4956 27.0744 42.4334 29.0122 44.8173 29.0122C47.2013 29.0122 49.1391 27.0744 49.1391 24.6904C49.1391 24.6277 49.1391 24.5719 49.1321 24.5092H50.4705C50.7633 24.5092 51.0003 24.2722 51.0003 23.9794V15.9423C51.0003 15.6705 50.7981 15.4404 50.5193 15.4125ZM7.42706 27.9527C5.62864 27.9527 4.17179 26.4888 4.17179 24.6974C4.17179 22.899 5.63561 21.4421 7.42706 21.4421C9.2185 21.4421 10.6823 22.9059 10.6823 24.6974C10.6823 26.4888 9.22547 27.9527 7.42706 27.9527ZM17.4508 27.9527C15.6524 27.9527 14.1955 26.4888 14.1955 24.6974C14.1955 22.899 15.6593 21.4421 17.4508 21.4421C19.2492 21.4421 20.706 22.9059 20.706 24.6974C20.706 26.4888 19.2422 27.9527 17.4508 27.9527ZM20.8176 21.9928C20.0229 21.0099 18.81 20.3756 17.4508 20.3756C16.0915 20.3756 14.8717 21.0099 14.077 21.9928C14.0631 21.9928 14.0561 21.9928 14.0422 21.9928H10.8008C10.0062 21.0099 8.79329 20.3756 7.43403 20.3756C6.07476 20.3756 4.85491 21.0099 4.06026 21.9928C4.04632 21.9928 4.03935 21.9928 4.0254 21.9928H1.49508V19.8807H30.4928V21.9928H20.8176ZM44.8173 27.9527C43.0189 27.9527 41.5621 26.4888 41.5621 24.6974C41.5621 22.899 43.0259 21.4421 44.8173 21.4421C46.6088 21.4421 48.0726 22.9059 48.0726 24.6974C48.0726 26.4888 46.6088 27.9527 44.8173 27.9527ZM49.9407 23.4496H48.9579C48.4211 21.6721 46.7691 20.3686 44.8173 20.3686C42.8656 20.3686 41.2135 21.6652 40.6768 23.4496H31.5523V10.2892H38.4532L39.1084 14.9943C39.1433 15.2383 39.3384 15.4265 39.5824 15.4474L49.9338 16.4303V23.4496H49.9407Z" fill="black"/>
<path d="M37.7421 11.4044C37.7142 11.1395 37.4842 10.9304 37.2123 10.9304H32.8418C32.549 10.9304 32.312 11.1674 32.312 11.4602V15.6565C32.312 15.8029 32.3747 15.9423 32.4793 16.0399C32.5769 16.1375 32.7093 16.1863 32.8487 16.1863C32.8557 16.1863 32.8627 16.1863 32.8697 16.1863L37.7073 15.9702C37.8536 15.9632 37.993 15.8935 38.0906 15.782C38.1882 15.6704 38.23 15.524 38.2161 15.3777L37.7421 11.4044ZM33.3715 15.1058V11.9969H36.7383L37.0799 14.9385L33.3715 15.1058Z" fill="black"/>
<path d="M0.93717 10.8955L6.81338 15.1546C9.37159 17.0088 12.362 17.9777 15.4987 17.9777C15.7218 17.9777 15.9379 17.9707 16.161 17.9637L23.4104 17.65C24.4072 17.6082 25.2924 16.8624 25.6131 15.7959L27.4045 9.84298C27.7252 8.77648 27.3976 7.66815 26.589 7.08262L20.7128 2.82359C17.9733 0.836969 14.739 -0.131945 11.3652 0.0144372L4.11576 0.328115C3.11897 0.369938 2.2337 1.11579 1.91305 2.18229L0.12161 8.13518C-0.199038 9.20169 0.128581 10.31 0.93717 10.8955ZM26.3101 9.50839L24.5187 15.4613C24.3444 16.0538 23.8704 16.479 23.3616 16.4999L18.5031 16.709L22.0511 5.20056L25.9198 8.00274C26.3241 8.30248 26.4914 8.92286 26.3101 9.50839ZM11.414 1.15762C11.6161 1.15065 11.8183 1.14367 12.0274 1.14367C14.9202 1.14367 17.6805 2.03591 20.0436 3.75068L21.0683 4.49653L17.3181 16.6672C17.3111 16.702 17.3041 16.7369 17.2972 16.7648L16.1122 16.8136C15.91 16.8205 15.7079 16.8275 15.4987 16.8275C12.606 16.8275 9.84559 15.9353 7.48256 14.2205L6.49971 13.5095L10.2917 1.20641L11.414 1.15762ZM1.22296 8.4628L3.01441 2.50991C3.18867 1.91741 3.66267 1.4922 4.17153 1.47129L9.0858 1.26217L5.53079 12.8055L1.62029 9.96845C1.20205 9.66872 1.04173 9.0553 1.22296 8.4628Z" fill="black"/>
<path d="M7.42678 22.1112C6.00477 22.1112 4.84766 23.2683 4.84766 24.6903C4.84766 26.1123 6.00477 27.2694 7.42678 27.2694C8.84878 27.2694 10.0059 26.1123 10.0059 24.6903C10.0059 23.2683 8.84878 22.1112 7.42678 22.1112ZM7.42678 26.2099C6.5903 26.2099 5.90719 25.5268 5.90719 24.6903C5.90719 23.8539 6.5903 23.1707 7.42678 23.1707C8.26325 23.1707 8.94637 23.8539 8.94637 24.6903C8.94637 25.5338 8.26325 26.2099 7.42678 26.2099Z" fill="black"/>
<path d="M17.4507 22.1112C16.0287 22.1112 14.8716 23.2683 14.8716 24.6903C14.8716 26.1123 16.0287 27.2694 17.4507 27.2694C18.8727 27.2694 20.0298 26.1123 20.0298 24.6903C20.0298 23.2683 18.8727 22.1112 17.4507 22.1112ZM17.4507 26.2099C16.6142 26.2099 15.9311 25.5268 15.9311 24.6903C15.9311 23.8539 16.6142 23.1707 17.4507 23.1707C18.2872 23.1707 18.9703 23.8539 18.9703 24.6903C18.9633 25.5338 18.2872 26.2099 17.4507 26.2099Z" fill="black"/>
</svg>
