<svg width="50" height="27" viewBox="0 0 50 27" fill="none" xmlns="http://www.w3.org/2000/svg">
<path d="M7.51783 18.8951C5.98882 18.8951 4.74463 20.1393 4.74463 21.6683C4.74463 23.1973 5.98882 24.4415 7.51783 24.4415C9.04683 24.4415 10.291 23.1973 10.291 21.6683C10.2985 20.1468 9.05433 18.8951 7.51783 18.8951ZM7.51783 23.3023C6.61841 23.3023 5.88389 22.5678 5.88389 21.6683C5.88389 20.7689 6.61841 20.0344 7.51783 20.0344C8.41724 20.0344 9.15177 20.7689 9.15177 21.6683C9.15177 22.5752 8.41724 23.3023 7.51783 23.3023Z" fill="black"/>
<path d="M18.2957 18.8951C16.7667 18.8951 15.5225 20.1393 15.5225 21.6683C15.5225 23.1973 16.7667 24.4415 18.2957 24.4415C19.8247 24.4415 21.0689 23.1973 21.0689 21.6683C21.0689 20.1468 19.8247 18.8951 18.2957 18.8951ZM18.2957 23.3023C17.3962 23.3023 16.6617 22.5678 16.6617 21.6683C16.6617 20.7689 17.3962 20.0344 18.2957 20.0344C19.1951 20.0344 19.9296 20.7689 19.9296 21.6683C19.9296 22.5752 19.1951 23.3023 18.2957 23.3023Z" fill="black"/>
<path d="M43.3367 19.0526C41.8901 19.0526 40.7134 20.2293 40.7134 21.6759C40.7134 23.1225 41.8901 24.2992 43.3367 24.2992C44.7832 24.2992 45.96 23.1225 45.96 21.6759C45.96 20.2293 44.7832 19.0526 43.3367 19.0526ZM43.3367 23.1524C42.5197 23.1524 41.8601 22.4929 41.8601 21.6759C41.8601 20.8589 42.5197 20.1994 43.3367 20.1994C44.1536 20.1994 44.8132 20.8589 44.8132 21.6759C44.8207 22.4854 44.1536 23.1524 43.3367 23.1524Z" fill="black"/>
<path d="M48.6359 12.9816C47.759 12.0147 46.5597 11.4151 45.2556 11.2952L38.2776 10.6356L37.5656 5.53141C37.5281 5.24659 37.2808 5.03673 36.996 5.03673H30.4827C30.1979 2.21106 27.8069 0 24.9063 0H24.0519C23.7371 0 23.4822 0.254836 23.4822 0.569631V15.35H0.56963C0.254835 15.35 0 15.6049 0 15.9197V19.3374C0 19.6522 0.254835 19.9071 0.56963 19.9071H3.22291C2.99805 20.4542 2.87813 21.0463 2.87813 21.6684C2.87813 24.2318 4.96178 26.3154 7.52511 26.3154C10.0884 26.3154 12.1721 24.2318 12.1721 21.6684C12.1721 21.0463 12.0447 20.4467 11.8273 19.9071H14.0009C13.776 20.4542 13.6561 21.0463 13.6561 21.6684C13.6561 24.2318 15.7398 26.3154 18.3031 26.3154C20.8664 26.3154 22.9501 24.2318 22.9501 21.6684C22.9501 21.0463 22.8302 20.4467 22.6053 19.9071H23.4897V20.9039C23.4897 21.2187 23.7446 21.4735 24.0594 21.4735H38.7123C38.7123 21.541 38.7048 21.601 38.7048 21.6684C38.7048 24.2318 40.7885 26.3154 43.3518 26.3154C45.9152 26.3154 47.9988 24.2318 47.9988 21.6684C47.9988 21.601 47.9988 21.541 47.9913 21.4735H49.4304C49.7452 21.4735 50 21.2187 50 20.9039V16.4968C49.9925 15.2001 49.5128 13.9484 48.6359 12.9816ZM7.51761 25.1761C5.58387 25.1761 4.01739 23.6022 4.01739 21.6759C4.01739 19.7422 5.59137 18.1757 7.51761 18.1757C9.45136 18.1757 11.0178 19.7497 11.0178 21.6759C11.0253 23.6022 9.45136 25.1761 7.51761 25.1761ZM18.2956 25.1761C16.3619 25.1761 14.7954 23.6022 14.7954 21.6759C14.7954 19.7422 16.3694 18.1757 18.2956 18.1757C20.2294 18.1757 21.7958 19.7497 21.7958 21.6759C21.7958 23.6022 20.2294 25.1761 18.2956 25.1761ZM21.9158 18.7678C21.0613 17.711 19.7572 17.0289 18.2956 17.0289C16.8341 17.0289 15.5224 17.711 14.668 18.7678C14.653 18.7678 14.6455 18.7678 14.6305 18.7678H11.1453C10.2908 17.711 8.98666 17.0289 7.52511 17.0289C6.06356 17.0289 4.75191 17.711 3.89747 18.7678C3.88248 18.7678 3.87498 18.7678 3.85999 18.7678H1.13926V16.4968H23.4747V18.7678H21.9158ZM43.3368 25.1761C41.4031 25.1761 39.8366 23.6022 39.8366 21.6759C39.8366 19.7422 41.4106 18.1757 43.3368 18.1757C45.2706 18.1757 46.8371 19.7497 46.8371 21.6759C46.8446 23.6022 45.2706 25.1761 43.3368 25.1761ZM48.8532 20.3343H47.7964C47.2193 18.423 45.443 17.0214 43.3443 17.0214C41.2457 17.0214 39.4693 18.4155 38.8922 20.3343H24.6215V1.14676H24.9063C27.3647 1.14676 29.3659 3.14795 29.3659 5.60636C29.3659 5.92115 29.6208 6.17599 29.9355 6.17599H36.5013L37.2058 11.2352C37.2433 11.4975 37.4532 11.6999 37.7155 11.7224L45.1432 12.4269C47.2568 12.6293 48.8458 14.3757 48.8458 16.4968V20.3343H48.8532Z" fill="black"/>
<path d="M35.6544 7.38259C35.6244 7.09028 35.3771 6.87292 35.0847 6.87292H30.4603C30.1455 6.87292 29.8906 7.12776 29.8906 7.44255V11.9546C29.8906 12.112 29.9581 12.2619 30.0705 12.3669C30.1754 12.4718 30.3178 12.5243 30.4678 12.5243C30.4752 12.5243 30.4827 12.5243 30.4902 12.5243L35.6094 12.2919C35.7668 12.2844 35.9167 12.2095 36.0216 12.0895C36.1266 11.9696 36.1715 11.8122 36.1566 11.6548L35.6544 7.38259ZM31.0299 11.3625V8.01968H34.5751L34.9423 11.1826L31.0299 11.3625Z" fill="black"/>
</svg>
