<svg width="50" height="26" viewBox="0 0 50 26" fill="none" xmlns="http://www.w3.org/2000/svg">
<path d="M13.2386 18.276C11.7341 18.276 10.5098 19.5003 10.5098 21.0049C10.5098 22.5094 11.7341 23.7337 13.2386 23.7337C14.7432 23.7337 15.9675 22.5094 15.9675 21.0049C15.9675 19.5003 14.7432 18.276 13.2386 18.276ZM13.2386 22.6053C12.3536 22.6053 11.6308 21.8825 11.6308 20.9975C11.6308 20.1125 12.3536 19.3897 13.2386 19.3897C14.1237 19.3897 14.8464 20.1125 14.8464 20.9975C14.8464 21.8825 14.1237 22.6053 13.2386 22.6053Z" fill="black"/>
<path d="M42.4007 18.4235C40.9773 18.4235 39.8193 19.5814 39.8193 21.0048C39.8193 22.4282 40.9773 23.5862 42.4007 23.5862C43.8241 23.5862 44.982 22.4282 44.982 21.0048C44.982 19.5814 43.8241 18.4235 42.4007 18.4235ZM42.4007 22.4577C41.5968 22.4577 40.9478 21.8087 40.9478 21.0048C40.9478 20.2009 41.5968 19.5519 42.4007 19.5519C43.2046 19.5519 43.8536 20.2009 43.8536 21.0048C43.861 21.8087 43.2046 22.4577 42.4007 22.4577Z" fill="black"/>
<path d="M49.9825 11.6087L48.3378 5.05948C48.2714 4.80872 48.0502 4.63171 47.792 4.63171H36.707C36.3972 4.63171 36.1465 4.88248 36.1465 5.19224V14.7801H2.79539C2.48562 14.7801 2.23486 15.0309 2.23486 15.3406V18.7038C2.23486 19.0135 2.48562 19.2643 2.79539 19.2643H9.00538C8.78412 19.8027 8.66612 20.3853 8.66612 20.9975C8.66612 23.5198 10.7164 25.5702 13.2388 25.5702C15.7611 25.5702 17.8115 23.5198 17.8115 20.9975C17.8115 20.3853 17.6861 19.8027 17.4722 19.2643H36.1465V20.2452C36.1465 20.555 36.3972 20.8057 36.707 20.8057H37.8354C37.8354 20.8721 37.828 20.9311 37.828 20.9975C37.828 23.5198 39.8784 25.5702 42.4007 25.5702C44.9231 25.5702 46.9734 23.5198 46.9734 20.9975C46.9734 20.9311 46.9734 20.8721 46.966 20.8057H49.4367C49.7465 20.8057 49.9973 20.555 49.9973 20.2452V11.7489C50.0046 11.6972 49.9973 11.653 49.9825 11.6087ZM13.2388 24.4491C11.336 24.4491 9.79454 22.9003 9.79454 21.0049C9.79454 19.102 11.3433 17.5606 13.2388 17.5606C15.1416 17.5606 16.6831 19.1094 16.6831 21.0049C16.6831 22.9077 15.1416 24.4491 13.2388 24.4491ZM16.8011 18.1432C15.9603 17.1033 14.677 16.4322 13.2388 16.4322C11.8006 16.4322 10.5099 17.1033 9.66916 18.1432C9.65441 18.1432 9.64703 18.1432 9.63228 18.1432H3.35591V15.9085H36.1391V18.1432H16.8011ZM42.4007 24.4491C40.4979 24.4491 38.9564 22.9003 38.9564 21.0049C38.9564 19.102 40.5053 17.5606 42.4007 17.5606C44.3035 17.5606 45.845 19.1094 45.845 21.0049C45.8523 22.9077 44.3035 24.4491 42.4007 24.4491ZM48.8762 19.6921H46.7816C46.2137 17.8114 44.4658 16.4322 42.4007 16.4322C40.3356 16.4322 38.5877 17.804 38.0198 19.6921H37.2675V5.76014H47.3569L48.8762 11.8152V19.6921Z" fill="black"/>
<path d="M46.3684 6.44604H41.7441C41.4343 6.44604 41.1836 6.6968 41.1836 7.00657V11.4465C41.1836 11.6014 41.2426 11.7489 41.3532 11.8521C41.4565 11.9554 41.5966 12.007 41.7441 12.007C41.7515 12.007 41.7589 12.007 41.7662 12.007L47.3715 11.7784C47.5411 11.771 47.696 11.6899 47.7992 11.5571C47.9025 11.4244 47.9394 11.2547 47.9025 11.0851L46.9289 6.87381C46.8552 6.63043 46.6266 6.44604 46.3684 6.44604ZM42.3046 10.8638V7.57446H45.9185L46.6413 10.6868L42.3046 10.8638Z" fill="black"/>
<path d="M28.8743 14.1237C31.9498 14.1237 34.4574 11.6235 34.4574 8.54059C34.4574 5.46509 31.9571 2.95749 28.8743 2.95749H20.2821V0.560521C20.2821 0.250759 20.0313 0 19.7215 0H14.7432C14.4334 0 14.1827 0.250759 14.1827 0.560521V2.95749H5.5831C2.5076 2.95749 0 5.45772 0 8.54059C0 11.6161 2.50022 14.1237 5.5831 14.1237H28.8743ZM15.3037 1.12842H19.1536V2.96487H15.3037V1.12842ZM1.12842 8.54059C1.12842 6.08462 3.12712 4.08591 5.5831 4.08591H28.8743C31.3302 4.08591 33.3289 6.08462 33.3289 8.54059C33.3289 10.9966 31.3302 12.9953 28.8743 12.9953H5.5831C3.12712 12.9953 1.12842 10.9966 1.12842 8.54059Z" fill="black"/>
</svg>
