<svg width="14" height="79" viewBox="0 0 14 79" fill="none" xmlns="http://www.w3.org/2000/svg">
<path d="M6.49905 0.188477C2.91592 0.188477 0 3.1014 0 6.68553C0 10.2687 6.04191 18.3445 6.29974 18.6923C6.34761 18.7548 6.4199 18.792 6.5 18.792C6.5801 18.792 6.65239 18.7548 6.70026 18.6923C6.95814 18.3446 13 10.1819 13 6.68553C13 3.18918 10.0841 0.188477 6.50095 0.188477H6.49905ZM6.49905 9.80877C4.77879 9.80877 3.37807 8.40792 3.37807 6.68578C3.37807 4.96259 4.77891 3.56479 6.49905 3.56479C8.2192 3.56479 9.62004 4.96564 9.62004 6.68578C9.62004 8.40605 8.2192 9.80877 6.49905 9.80877Z" fill="#0D111D"/>
<path d="M8.62781 19.7746C8.62781 19.5675 8.62781 19.3545 6.49921 19.3545C4.37061 19.3545 4.37354 19.5675 4.37354 19.7746C4.37354 19.9816 4.37354 20.1946 6.49921 20.1946C8.62488 20.1946 8.62781 19.9817 8.62781 19.7746Z" fill="#0D111D"/>
<path d="M6.13672 26.4999V56.9999" stroke="#4D4D4D" stroke-dasharray="2 2"/>
<path d="M11.2157 69.5144L14 74.0144H1.8991V65.0144H14L11.2157 69.5144ZM0 64V79H1.26534V64H0Z" fill="#0D111D"/>
</svg>
