<svg width="30" height="33" viewBox="0 0 30 33" fill="none" xmlns="http://www.w3.org/2000/svg">
<path d="M9.66344 22.6875H10.9134V14.4375H9.66344V22.6875ZM14.375 22.6875H15.625V10.3125H14.375V22.6875ZM19.0866 22.6875H20.3366V18.5625H19.0866V22.6875ZM7.01937 27.5C6.44396 27.5 5.96354 27.288 5.57812 26.8641C5.19271 26.4401 5 25.9116 5 25.2787V7.72131C5 7.08835 5.19271 6.5599 5.57812 6.13594C5.96354 5.71198 6.44396 5.5 7.01937 5.5H22.9806C23.556 5.5 24.0365 5.71198 24.4219 6.13594C24.8073 6.5599 25 7.08835 25 7.72131V25.2787C25 25.9116 24.8073 26.4401 24.4219 26.8641C24.0365 27.288 23.556 27.5 22.9806 27.5H7.01937ZM7.01937 26.125H22.9806C23.1731 26.125 23.3495 26.0369 23.5097 25.8607C23.6699 25.6844 23.75 25.4904 23.75 25.2787V7.72131C23.75 7.50956 23.6699 7.31557 23.5097 7.13934C23.3495 6.96311 23.1731 6.875 22.9806 6.875H7.01937C6.82687 6.875 6.65052 6.96311 6.49031 7.13934C6.3301 7.31557 6.25 7.50956 6.25 7.72131V25.2787C6.25 25.4904 6.3301 25.6844 6.49031 25.8607C6.65052 26.0369 6.82687 26.125 7.01937 26.125Z" fill="white"/>
</svg>
