<svg width="30" height="33" viewBox="0 0 30 33" fill="none" xmlns="http://www.w3.org/2000/svg">
<path d="M16.8749 17.5288C16.1697 17.5288 15.5768 17.2885 15.0962 16.8078C14.6153 16.327 14.3749 15.734 14.3749 15.0288C14.3749 14.3238 14.6153 13.7308 15.0962 13.25C15.5768 12.7692 16.1697 12.5288 16.8749 12.5288C17.5801 12.5288 18.173 12.7692 18.6537 13.25C19.1345 13.7308 19.3749 14.3238 19.3749 15.0288C19.3749 15.734 19.1345 16.327 18.6537 16.8078C18.173 17.2885 17.5801 17.5288 16.8749 17.5288ZM9.13461 21.5194C8.57919 21.5194 8.10378 21.3216 7.70836 20.926C7.31294 20.5305 7.11523 20.0552 7.11523 19.5V10.5578C7.11523 10.0024 7.31294 9.527 7.70836 9.13158C8.10378 8.73616 8.57919 8.53845 9.13461 8.53845H24.6152C25.1707 8.53845 25.6461 8.73616 26.0415 9.13158C26.4369 9.527 26.6346 10.0024 26.6346 10.5578V19.5C26.6346 20.0552 26.4369 20.5305 26.0415 20.926C25.6461 21.3216 25.1707 21.5194 24.6152 21.5194H9.13461ZM10.3846 20.2694H23.3652C23.3652 19.71 23.5629 19.2336 23.9584 18.84C24.3538 18.4467 24.8292 18.25 25.3846 18.25V11.8078C24.8252 11.8078 24.3489 11.6101 23.9555 11.2147C23.562 10.8191 23.3652 10.3437 23.3652 9.78845H10.3846C10.3846 10.3478 10.1869 10.8242 9.79148 11.2175C9.39607 11.6111 8.92065 11.8078 8.36523 11.8078V18.25C8.92461 18.25 9.40096 18.4477 9.7943 18.8431C10.1878 19.2386 10.3846 19.714 10.3846 20.2694ZM22.9327 25.2694H5.38461C4.82919 25.2694 4.35378 25.0716 3.95836 24.676C3.56294 24.2805 3.36523 23.8052 3.36523 23.25V12.2403H4.61523V23.25C4.61523 23.4423 4.69534 23.6186 4.85555 23.7788C5.01596 23.9392 5.19232 24.0194 5.38461 24.0194H22.9327V25.2694ZM9.13461 20.2694H8.36523V9.78845H9.13461C8.92628 9.78845 8.74596 9.8646 8.59367 10.0169C8.44138 10.1692 8.36523 10.3495 8.36523 10.5578V19.5C8.36523 19.7083 8.44138 19.8887 8.59367 20.041C8.74596 20.1932 8.92628 20.2694 9.13461 20.2694Z" fill="white"/>
</svg>
