<svg width="30" height="33" viewBox="0 0 30 33" fill="none" xmlns="http://www.w3.org/2000/svg">
<path d="M15.2716 24.673C15.4576 24.6522 15.603 24.5881 15.7078 24.4808C15.8128 24.3733 15.8653 24.2438 15.8653 24.0924C15.8653 23.9155 15.8054 23.7785 15.6856 23.6814C15.5656 23.5846 15.4124 23.5466 15.2259 23.5674C14.3718 23.6299 13.4175 23.3634 12.3631 22.768C11.3085 22.1726 10.6562 21.177 10.4062 19.7811C10.3646 19.5841 10.2953 19.4367 10.1984 19.3389C10.1014 19.2412 9.97833 19.1924 9.82938 19.1924C9.66583 19.1924 9.52635 19.2536 9.41094 19.3761C9.29573 19.4988 9.26135 19.682 9.30781 19.9255C9.6299 21.6611 10.4311 22.9031 11.7116 23.6514C12.992 24.3998 14.1786 24.7403 15.2716 24.673ZM14.9956 27.5577C12.4969 27.5577 10.4146 26.6979 8.74875 24.9783C7.08292 23.2589 6.25 21.1187 6.25 18.5577C6.25 16.7629 6.97396 14.7777 8.42188 12.6021C9.86979 10.4267 12.0625 8.04009 15 5.44238C17.9375 8.04009 20.1302 10.4267 21.5781 12.6021C23.026 14.7777 23.75 16.7629 23.75 18.5577C23.75 21.1187 22.9156 23.2589 21.2469 24.9783C19.5779 26.6979 17.4942 27.5577 14.9956 27.5577ZM15 26.3077C17.1667 26.3077 18.9583 25.5733 20.375 24.1046C21.7917 22.6358 22.5 20.7869 22.5 18.5577C22.5 17.0369 21.8698 15.3181 20.6094 13.4014C19.349 11.4848 17.4792 9.39103 15 7.1202C12.5208 9.39103 10.651 11.4848 9.39062 13.4014C8.13021 15.3181 7.5 17.0369 7.5 18.5577C7.5 20.7869 8.20833 22.6358 9.625 24.1046C11.0417 25.5733 12.8333 26.3077 15 26.3077Z" fill="#0D111D"/>
</svg>
