<svg width="30" height="33" viewBox="0 0 30 33" fill="none" xmlns="http://www.w3.org/2000/svg">
<path d="M5.625 22.75V25.25V7.75V22.75ZM6.39437 26.5C5.835 26.5 5.35854 26.3033 4.965 25.91C4.57167 25.5165 4.375 25.04 4.375 24.4806V8.51937C4.375 7.96 4.57167 7.48354 4.965 7.09C5.35854 6.69667 5.835 6.5 6.39437 6.5H22.3556C22.915 6.5 23.3915 6.69667 23.785 7.09C24.1783 7.48354 24.375 7.96 24.375 8.51937V12.1972H23.125V8.51937C23.125 8.295 23.0529 8.11062 22.9088 7.96625C22.7644 7.82208 22.58 7.75 22.3556 7.75H6.39437C6.17 7.75 5.98562 7.82208 5.84125 7.96625C5.69708 8.11062 5.625 8.295 5.625 8.51937V24.4806C5.625 24.705 5.69708 24.8894 5.84125 25.0338C5.98562 25.1779 6.17 25.25 6.39437 25.25H22.3556C22.58 25.25 22.7644 25.1779 22.9088 25.0338C23.0529 24.8894 23.125 24.705 23.125 24.4806V20.8028H24.375V24.4806C24.375 25.04 24.1783 25.5165 23.785 25.91C23.3915 26.3033 22.915 26.5 22.3556 26.5H6.39437ZM16.3944 21.5C15.835 21.5 15.3585 21.3033 14.965 20.91C14.5717 20.5165 14.375 20.04 14.375 19.4806V13.5194C14.375 12.96 14.5717 12.4835 14.965 12.09C15.3585 11.6967 15.835 11.5 16.3944 11.5H23.6056C24.165 11.5 24.6415 11.6967 25.035 12.09C25.4283 12.4835 25.625 12.96 25.625 13.5194V19.4806C25.625 20.04 25.4283 20.5165 25.035 20.91C24.6415 21.3033 24.165 21.5 23.6056 21.5H16.3944ZM23.6056 20.25C23.83 20.25 24.0144 20.1779 24.1588 20.0337C24.3029 19.8894 24.375 19.705 24.375 19.4806V13.5194C24.375 13.295 24.3029 13.1106 24.1588 12.9662C24.0144 12.8221 23.83 12.75 23.6056 12.75H16.3944C16.17 12.75 15.9856 12.8221 15.8412 12.9662C15.6971 13.1106 15.625 13.295 15.625 13.5194V19.4806C15.625 19.705 15.6971 19.8894 15.8412 20.0337C15.9856 20.1779 16.17 20.25 16.3944 20.25H23.6056ZM19.375 18.375C19.8958 18.375 20.3385 18.1927 20.7031 17.8281C21.0677 17.4635 21.25 17.0208 21.25 16.5C21.25 15.9792 21.0677 15.5365 20.7031 15.1719C20.3385 14.8073 19.8958 14.625 19.375 14.625C18.8542 14.625 18.4115 14.8073 18.0469 15.1719C17.6823 15.5365 17.5 15.9792 17.5 16.5C17.5 17.0208 17.6823 17.4635 18.0469 17.8281C18.4115 18.1927 18.8542 18.375 19.375 18.375Z" fill="white"/>
</svg>
