<svg width="30" height="33" viewBox="0 0 30 33" fill="none" xmlns="http://www.w3.org/2000/svg">
<path d="M23.6971 27L16.7571 20.06L18.084 18.7331L25.024 25.6731L23.6971 27ZM6.32682 27L4.99994 25.6731L13.6971 16.9759L9.98557 13.2884L9.30275 13.9712L8.11775 12.7619V15.0119L7.43494 15.6947L4.15869 12.4181L4.84119 11.7356H7.09119L5.88932 10.5578L8.59619 7.85092C8.88452 7.56238 9.20015 7.34842 9.54307 7.20905C9.88619 7.06967 10.2516 6.99998 10.6393 6.99998C11.0272 6.99998 11.3927 7.06967 11.7356 7.20905C12.0785 7.34842 12.3942 7.56238 12.6828 7.85092L10.6249 9.90874L11.9953 11.2787L11.3124 11.9615L15.024 15.649L18.2212 12.4519C18.0256 12.1746 17.8897 11.8909 17.8137 11.6009C17.7374 11.3109 17.6993 10.9928 17.6993 10.6465C17.6993 9.62571 18.0532 8.76155 18.7609 8.05405C19.4684 7.34655 20.3325 6.9928 21.3534 6.9928C21.5696 6.9928 21.7784 7.008 21.9796 7.03842C22.1807 7.06884 22.3789 7.13051 22.5743 7.22342L19.9856 9.81248L22.1874 12.0144L24.7765 9.42561C24.8742 9.62103 24.937 9.81926 24.9649 10.0203C24.9931 10.2215 25.0071 10.4303 25.0071 10.6465C25.0071 11.6674 24.6534 12.5315 23.9459 13.239C23.2384 13.9468 22.3742 14.3006 21.3534 14.3006C21.0071 14.3006 20.689 14.2637 20.399 14.19C20.109 14.1162 19.8254 13.9792 19.5481 13.7787L6.32682 27Z" fill="white"/>
</svg>
