<svg width="30" height="33" viewBox="0 0 30 33" fill="none" xmlns="http://www.w3.org/2000/svg">
<path d="M16.94 26.5L9.375 18.6153V16.9806H13.125C14.3894 16.9806 15.5389 16.5813 16.5734 15.7825C17.6078 14.9835 18.1363 13.8445 18.1588 12.3653H8.125V11.1153H18.0241C17.7659 10.1297 17.1878 9.3224 16.2897 8.69344C15.3914 8.06448 14.3365 7.75 13.125 7.75H8.125V6.5H21.875V7.75H16.9472C17.5432 8.10417 18.06 8.58177 18.4975 9.18281C18.935 9.78365 19.2082 10.4278 19.3172 11.1153H21.875V12.3653H19.4159C19.4095 14.1361 18.7765 15.5565 17.5169 16.6263C16.2573 17.6958 14.7933 18.2306 13.125 18.2306H10.7525L18.6778 26.5H16.94Z" fill="#0D111D"/>
</svg>
