<svg width="30" height="33" viewBox="0 0 30 33" fill="none" xmlns="http://www.w3.org/2000/svg">
<path d="M10.625 23.375H19.375V22.125H10.625V23.375ZM10.625 18.375H19.375V17.125H10.625V18.375ZM8.26937 27.75C7.69396 27.75 7.21354 27.5573 6.82812 27.1719C6.44271 26.7865 6.25 26.306 6.25 25.7306V7.26937C6.25 6.69396 6.44271 6.21354 6.82812 5.82812C7.21354 5.44271 7.69396 5.25 8.26937 5.25H18.125L23.75 10.875V25.7306C23.75 26.306 23.5573 26.7865 23.1719 27.1719C22.7865 27.5573 22.306 27.75 21.7306 27.75H8.26937ZM17.5 11.5V6.5H8.26937C8.07687 6.5 7.90052 6.5801 7.74031 6.74031C7.5801 6.90052 7.5 7.07687 7.5 7.26937V25.7306C7.5 25.9231 7.5801 26.0995 7.74031 26.2597C7.90052 26.4199 8.07687 26.5 8.26937 26.5H21.7306C21.9231 26.5 22.0995 26.4199 22.2597 26.2597C22.4199 26.0995 22.5 25.9231 22.5 25.7306V11.5H17.5Z" fill="white"/>
</svg>
