<svg width="30" height="33" viewBox="0 0 30 33" fill="none" xmlns="http://www.w3.org/2000/svg">
<path d="M14.375 27.75V23.1106C14.375 21.976 14.214 21.0794 13.8919 20.4206C13.5698 19.7621 13.085 19.154 12.4375 18.5962L13.3294 17.7044C13.6115 17.9656 13.9032 18.2905 14.2044 18.6791C14.5057 19.0676 14.7709 19.4799 15 19.9159C15.2436 19.4078 15.5645 18.9226 15.9629 18.4603C16.361 17.998 16.7805 17.5729 17.2213 17.185C18.2692 16.2635 19.1001 15.1233 19.7141 13.7644C20.3279 12.4054 20.6235 10.3758 20.601 7.67562L18.0072 10.2694L17.1154 9.38469L21.25 5.25L25.3847 9.38469L24.5 10.2694L21.851 7.6275C21.8735 10.4304 21.5473 12.6063 20.8725 14.155C20.198 15.704 19.2709 17.0184 18.0913 18.0984C17.3767 18.7507 16.787 19.3994 16.3222 20.0444C15.8574 20.6894 15.625 21.7115 15.625 23.1106V27.75H14.375ZM8.44723 11.6466C8.34786 11.2139 8.27452 10.6194 8.22723 9.86312C8.17994 9.10667 8.1539 8.36146 8.14911 7.6275L5.50004 10.2694L4.61536 9.38469L8.75004 5.25L12.8847 9.38469L11.9929 10.2694L9.39911 7.68281C9.38306 8.37656 9.39984 9.05646 9.44942 9.7225C9.49921 10.3883 9.569 10.9359 9.65879 11.3653L8.44723 11.6466ZM10.7741 16.9303C10.4376 16.5249 10.1087 16.0505 9.78723 15.5072C9.46598 14.9639 9.21556 14.4334 9.03598 13.9159L10.2404 13.6106C10.3847 14.0129 10.5803 14.432 10.8269 14.8678C11.0738 15.3036 11.3535 15.6939 11.666 16.0384L10.7741 16.9303Z" fill="#0D111D"/>
</svg>
