<svg width="30" height="33" viewBox="0 0 30 33" fill="none" xmlns="http://www.w3.org/2000/svg">
<path d="M3.24536 24.7693V22.7115C3.24536 22.1313 3.39557 21.6325 3.69599 21.215C3.9964 20.7977 4.40015 20.4641 4.90724 20.2143C5.99161 19.6981 7.06817 19.2865 8.13692 18.9797C9.20588 18.6728 10.492 18.5193 11.9954 18.5193C13.4985 18.5193 14.7845 18.6728 15.8535 18.9797C16.9224 19.2865 17.999 19.6981 19.0832 20.2143C19.5903 20.4641 19.994 20.7977 20.2944 21.215C20.595 21.6325 20.7454 22.1313 20.7454 22.7115V24.7693H3.24536ZM23.2454 24.7693V22.6537C23.2454 21.9293 23.0987 21.2456 22.8054 20.6025C22.5122 19.9593 22.0964 19.4076 21.5579 18.9472C22.1716 19.0722 22.763 19.2456 23.3319 19.4675C23.9007 19.6895 24.4632 19.9391 25.0194 20.2162C25.5611 20.4887 25.9858 20.8374 26.2935 21.2622C26.601 21.6872 26.7547 22.151 26.7547 22.6537V24.7693H23.2454ZM11.9954 15.7306C10.9641 15.7306 10.0813 15.3634 9.34692 14.629C8.61255 13.8947 8.24536 13.0118 8.24536 11.9806C8.24536 10.9493 8.61255 10.0665 9.34692 9.33215C10.0813 8.59778 10.9641 8.23059 11.9954 8.23059C13.0266 8.23059 13.9094 8.59778 14.6438 9.33215C15.3782 10.0665 15.7454 10.9493 15.7454 11.9806C15.7454 13.0118 15.3782 13.8947 14.6438 14.629C13.9094 15.3634 13.0266 15.7306 11.9954 15.7306ZM21.0819 11.9806C21.0819 13.0118 20.7147 13.8947 19.9804 14.629C19.246 15.3634 18.3632 15.7306 17.3319 15.7306C17.279 15.7306 17.2116 15.7247 17.1297 15.7128C17.0481 15.7007 16.9808 15.6875 16.9279 15.6731C17.3514 15.1543 17.6768 14.5789 17.9041 13.9468C18.1316 13.3148 18.2454 12.6584 18.2454 11.9778C18.2454 11.2972 18.1263 10.6467 17.8882 10.0265C17.6503 9.40632 17.3302 8.82694 16.9279 8.2884C16.9952 8.26444 17.0624 8.24882 17.1297 8.24153C17.197 8.23424 17.2644 8.23059 17.3319 8.23059C18.3632 8.23059 19.246 8.59778 19.9804 9.33215C20.7147 10.0665 21.0819 10.9493 21.0819 11.9806ZM4.49536 23.5193H19.4954V22.7115C19.4954 22.4182 19.422 22.1617 19.2754 21.9422C19.1287 21.7228 18.8655 21.5129 18.4857 21.3125C17.553 20.8141 16.5697 20.4324 15.536 20.1672C14.5024 19.9019 13.3222 19.7693 11.9954 19.7693C10.6683 19.7693 9.48797 19.9019 8.45442 20.1672C7.42067 20.4324 6.43744 20.8141 5.50474 21.3125C5.12494 21.5129 4.86172 21.7228 4.71505 21.9422C4.56859 22.1617 4.49536 22.4182 4.49536 22.7115V23.5193ZM11.9954 14.4806C12.6829 14.4806 13.2714 14.2358 13.761 13.7462C14.2506 13.2566 14.4954 12.6681 14.4954 11.9806C14.4954 11.2931 14.2506 10.7045 13.761 10.215C13.2714 9.72538 12.6829 9.48059 11.9954 9.48059C11.3079 9.48059 10.7193 9.72538 10.2297 10.215C9.74015 10.7045 9.49536 11.2931 9.49536 11.9806C9.49536 12.6681 9.74015 13.2566 10.2297 13.7462C10.7193 14.2358 11.3079 14.4806 11.9954 14.4806Z" fill="#0D111D"/>
</svg>
