<svg width="30" height="33" viewBox="0 0 30 33" fill="none" xmlns="http://www.w3.org/2000/svg">
<path d="M7.95687 23.4952C7.19562 23.4952 6.54854 23.2288 6.01562 22.6961C5.48271 22.1632 5.21625 21.5161 5.21625 20.7549H2.8125V10.7549C2.8125 10.4111 2.9349 10.1169 3.17969 9.87207C3.42448 9.62728 3.71875 9.50488 4.0625 9.50488H20.4088L27.1875 15.8993V20.7549H25.1681C25.1681 21.5161 24.9018 22.1632 24.3691 22.6961C23.8361 23.2288 23.1891 23.4952 22.4278 23.4952C21.6666 23.4952 21.0196 23.2288 20.4869 22.6961C19.954 22.1632 19.6875 21.5161 19.6875 20.7549H10.6972C10.6972 21.508 10.4307 22.153 9.89781 22.6899C9.3649 23.2268 8.71792 23.4952 7.95687 23.4952ZM17.8125 15.2261H24.6394L19.8797 10.7549H17.8125V15.2261ZM10.9375 15.2261H16.5625V10.7549H10.9375V15.2261ZM4.0625 15.2261H9.6875V10.7549H4.0625V15.2261ZM7.95687 22.3174C8.39437 22.3174 8.76417 22.1663 9.06625 21.8643C9.36833 21.5622 9.51937 21.1924 9.51937 20.7549C9.51937 20.3174 9.36833 19.9476 9.06625 19.6455C8.76417 19.3434 8.39437 19.1924 7.95687 19.1924C7.51937 19.1924 7.14958 19.3434 6.8475 19.6455C6.54542 19.9476 6.39437 20.3174 6.39437 20.7549C6.39437 21.1924 6.54542 21.5622 6.8475 21.8643C7.14958 22.1663 7.51937 22.3174 7.95687 22.3174ZM22.4278 22.3174C22.8653 22.3174 23.2351 22.1663 23.5372 21.8643C23.8393 21.5622 23.9903 21.1924 23.9903 20.7549C23.9903 20.3174 23.8393 19.9476 23.5372 19.6455C23.2351 19.3434 22.8653 19.1924 22.4278 19.1924C21.9903 19.1924 21.6205 19.3434 21.3184 19.6455C21.0164 19.9476 20.8653 20.3174 20.8653 20.7549C20.8653 21.1924 21.0164 21.5622 21.3184 21.8643C21.6205 22.1663 21.9903 22.3174 22.4278 22.3174ZM4.0625 19.5049H5.54313C5.72104 19.1299 6.02719 18.7877 6.46156 18.4783C6.89594 18.1692 7.39437 18.0146 7.95687 18.0146C8.51937 18.0146 9.00573 18.1572 9.41594 18.4424C9.82615 18.7276 10.1443 19.0818 10.3703 19.5049H20.0144C20.1923 19.1299 20.4984 18.7877 20.9328 18.4783C21.367 18.1692 21.8653 18.0146 22.4278 18.0146C22.9903 18.0146 23.4767 18.1572 23.8869 18.4424C24.2973 18.7276 24.6154 19.0818 24.8412 19.5049H25.9375V16.4761H4.0625V19.5049Z" fill="white"/>
</svg>
