<svg width="15" height="19" viewBox="0 0 15 19" fill="none" xmlns="http://www.w3.org/2000/svg">
<path d="M4.5 14.8333H10.5V13.8636H4.5V14.8333ZM4.5 10.9545H10.5V9.98483H4.5V10.9545ZM2.88471 18.2273C2.49014 18.2273 2.16071 18.0778 1.89643 17.7788C1.63214 17.4798 1.5 17.1071 1.5 16.6607V2.33925C1.5 1.89287 1.63214 1.52018 1.89643 1.22119C2.16071 0.9222 2.49014 0.772705 2.88471 0.772705H9.64286L13.5 5.13634V16.6607C13.5 17.1071 13.3679 17.4798 13.1036 17.7788C12.8393 18.0778 12.5099 18.2273 12.1153 18.2273H2.88471ZM9.21429 5.62119V1.7424H2.88471C2.75271 1.7424 2.63179 1.80454 2.52193 1.92883C2.41207 2.05311 2.35714 2.18992 2.35714 2.33925V16.6607C2.35714 16.81 2.41207 16.9468 2.52193 17.0711C2.63179 17.1954 2.75271 17.2576 2.88471 17.2576H12.1153C12.2473 17.2576 12.3682 17.1954 12.4781 17.0711C12.5879 16.9468 12.6429 16.81 12.6429 16.6607V5.62119H9.21429Z" fill="white"/>
</svg>
