<svg width="18" height="18" viewBox="0 0 18 18" fill="none" xmlns="http://www.w3.org/2000/svg">
<g clip-path="url(#clip0_2888_246)">
<path d="M16.9001 18.0001L10.3251 11.4251C9.80943 11.8673 9.21647 12.2104 8.57608 12.4371C7.20038 12.9444 5.69299 12.9685 4.30175 12.5055C2.91051 12.0425 1.71821 11.1199 0.920854 9.88939C0.123498 8.65888 -0.231458 7.19369 -0.0856534 5.7347C0.0601511 4.2757 0.698034 2.90973 1.72313 1.86135C2.74823 0.812965 4.09953 0.144571 5.55488 -0.0339626C7.01023 -0.212496 8.48302 0.109465 9.73113 0.878986C10.9792 1.64851 11.9284 2.81978 12.4225 4.20027C12.9166 5.58077 12.9264 7.08832 12.4501 8.47507C12.2092 9.15522 11.8541 9.78931 11.4001 10.3501L18.0001 16.9001L16.9001 18.0001ZM6.42508 11.3001C7.06854 11.3111 7.70734 11.1891 8.3015 10.9418C8.89566 10.6946 9.43239 10.3273 9.87808 9.86307C10.789 8.94088 11.2999 7.69682 11.2999 6.40056C11.2999 5.1043 10.789 3.86026 9.87808 2.93807C9.43239 2.47382 8.89566 2.10657 8.3015 1.8593C7.70734 1.61204 7.06854 1.49008 6.42508 1.50107C5.12552 1.50107 3.87918 2.01731 2.96025 2.93624C2.04132 3.85517 1.52508 5.1015 1.52508 6.40107C1.52508 7.70063 2.04132 8.94697 2.96025 9.86589C3.87918 10.7848 5.12552 11.3001 6.42508 11.3001Z" fill="white"/>
</g>
<defs>
<clipPath id="clip0_2888_246">
<rect width="18" height="18" fill="white"/>
</clipPath>
</defs>
</svg>
