<svg width="50" height="28" viewBox="0 0 50 28" fill="none" xmlns="http://www.w3.org/2000/svg">
<path d="M41.7867 21.3254C40.5124 21.3254 39.4758 22.362 39.4758 23.6363C39.4758 24.9105 40.5124 25.9471 41.7867 25.9471C43.0609 25.9471 44.0975 24.9105 44.0975 23.6363C44.0975 22.362 43.0609 21.3254 41.7867 21.3254ZM41.7867 24.937C41.067 24.937 40.486 24.3559 40.486 23.6363C40.486 22.9166 41.067 22.3356 41.7867 22.3356C42.5063 22.3356 43.0873 22.9166 43.0873 23.6363C43.0873 24.3493 42.4997 24.937 41.7867 24.937Z" fill="#0D111D"/>
<path d="M49.9604 15.1521L47.4845 9.28913C47.4053 9.10426 47.2204 8.97881 47.0223 8.97881H40.0436V0.78523C40.0436 0.507929 39.8191 0.283447 39.5418 0.283447H0.501782C0.224481 0.283447 0 0.507929 0 0.78523V18.5655C0 18.8428 0.224481 19.0673 0.501782 19.0673H4.78674V21.5696C4.78674 21.8469 5.01122 22.0714 5.28852 22.0714H7.62578C7.4277 22.5534 7.32206 23.0749 7.32206 23.6229C7.32206 25.881 9.15753 27.7164 11.4156 27.7164C13.6736 27.7164 15.509 25.881 15.509 23.6229C15.509 23.0749 15.3968 22.5534 15.2053 22.0714H17.12C16.922 22.5534 16.8163 23.0749 16.8163 23.6229C16.8163 25.881 18.6518 27.7164 20.9098 27.7164C23.1678 27.7164 25.0033 25.881 25.0033 23.6229C25.0033 23.0749 24.8977 22.5534 24.6996 22.0714H38.0034C37.8054 22.5534 37.6997 23.0749 37.6997 23.6229C37.6997 25.881 39.5352 27.7164 41.7932 27.7164C44.0512 27.7164 45.8867 25.881 45.8867 23.6229C45.8867 23.5635 45.8867 23.5107 45.8801 23.4513H49.4982C49.7755 23.4513 50 23.2268 50 22.9495V15.3435C50 15.2775 49.9868 15.2115 49.9604 15.1521ZM1.00356 1.28701H39.0334V9.4806V18.0637H5.28852H1.00356V1.28701ZM11.4156 26.7195C9.71214 26.7195 8.33223 25.333 8.33223 23.6361C8.33223 21.9327 9.71874 20.5528 11.4156 20.5528C13.119 20.5528 14.4989 21.9393 14.4989 23.6361C14.4989 25.333 13.1124 26.7195 11.4156 26.7195ZM20.9032 26.7195C19.1998 26.7195 17.8199 25.333 17.8199 23.6361C17.8199 21.9327 19.2064 20.5528 20.9032 20.5528C22.6066 20.5528 23.9865 21.9393 23.9865 23.6361C23.9865 25.333 22.6066 26.7195 20.9032 26.7195ZM24.0922 21.0744C23.3395 20.1435 22.1907 19.5427 20.9032 19.5427C19.6157 19.5427 18.4603 20.1435 17.7076 21.0744C17.6944 21.0744 17.6878 21.0744 17.6746 21.0744H14.6045C13.8518 20.1435 12.703 19.5427 11.4156 19.5427C10.1281 19.5427 8.97267 20.1435 8.21999 21.0744C8.20679 21.0744 8.20018 21.0744 8.18698 21.0744H5.79031V19.0739H39.0334V20.5396C39.0334 20.5594 39.0334 20.5792 39.04 20.599C38.8815 20.7443 38.7297 20.9028 38.591 21.0744H24.0922ZM41.7866 26.7195C40.0832 26.7195 38.7033 25.333 38.7033 23.6361C38.7033 21.9327 40.0898 20.5528 41.7866 20.5528C43.49 20.5528 44.8699 21.9393 44.8699 23.6361C44.8699 25.333 43.4834 26.7195 41.7866 26.7195ZM48.9898 22.4543H45.7018C45.1934 20.7707 43.6287 19.5361 41.78 19.5361C41.1594 19.5361 40.5652 19.6747 40.037 19.9256V9.98898H46.6724L48.9832 15.4492V22.4543H48.9898Z" fill="#0D111D"/>
<path d="M46.0055 10.603H41.2584C40.9811 10.603 40.7566 10.8275 40.7566 11.1048V15.0795C40.7566 15.2181 40.8094 15.3436 40.9084 15.4426C41.0009 15.535 41.1263 15.5812 41.2584 15.5812C41.265 15.5812 41.2716 15.5812 41.2782 15.5812L47.3326 15.3766C47.491 15.37 47.6429 15.2907 47.7287 15.1587C47.8212 15.0266 47.841 14.8616 47.7881 14.7097L46.4809 10.9398C46.4082 10.7351 46.2168 10.603 46.0055 10.603ZM41.7602 14.5579V11.6066H45.6424L46.6129 14.3928L41.7602 14.5579Z" fill="#0D111D"/>
<path d="M11.4155 21.1865C10.0687 21.1865 8.97266 22.2825 8.97266 23.6294C8.97266 24.9763 10.0687 26.0723 11.4155 26.0723C12.7624 26.0723 13.8584 24.9763 13.8584 23.6294C13.8584 22.2825 12.7624 21.1865 11.4155 21.1865ZM11.4155 25.0687C10.6233 25.0687 9.97622 24.4217 9.97622 23.6294C9.97622 22.8371 10.6233 22.1901 11.4155 22.1901C12.2078 22.1901 12.8549 22.8371 12.8549 23.6294C12.8483 24.4283 12.2012 25.0687 11.4155 25.0687Z" fill="#0D111D"/>
<path d="M20.9033 21.1865C19.5564 21.1865 18.4604 22.2825 18.4604 23.6294C18.4604 24.9763 19.5564 26.0723 20.9033 26.0723C22.2502 26.0723 23.3462 24.9763 23.3462 23.6294C23.3462 22.2825 22.2502 21.1865 20.9033 21.1865ZM20.9033 25.0687C20.1111 25.0687 19.464 24.4217 19.464 23.6294C19.464 22.8371 20.1111 22.1901 20.9033 22.1901C21.6956 22.1901 22.3427 22.8371 22.3427 23.6294C22.3427 24.4283 21.6956 25.0687 20.9033 25.0687Z" fill="#0D111D"/>
</svg>
