<svg width="15" height="19" viewBox="0 0 15 19" fill="none" xmlns="http://www.w3.org/2000/svg">
<path d="M6.56548 15.9996C6.44191 16.0022 6.31903 15.9829 6.20441 15.9427C6.08979 15.9025 5.98587 15.8423 5.89905 15.7658C5.81107 15.6904 5.7418 15.6001 5.69554 15.5005C5.64927 15.4009 5.62699 15.2942 5.63005 15.1868V10.3118L0.206634 4.29925C0.0941276 4.18192 0.0240938 4.0383 0.0053336 3.88646C-0.0134266 3.73461 0.0199299 3.58135 0.101211 3.44595C0.174008 3.30497 0.294825 3.18679 0.447361 3.10737C0.599898 3.02794 0.776813 2.99111 0.954214 3.00181H14.0457C14.2231 2.99111 14.4 3.02794 14.5525 3.10737C14.705 3.18679 14.8259 3.30497 14.8987 3.44595C14.9799 3.58135 15.0133 3.73461 14.9945 3.88646C14.9758 4.0383 14.9057 4.18192 14.7932 4.29925L9.36982 10.3118V15.1868C9.37289 15.2942 9.3506 15.4009 9.30434 15.5005C9.25807 15.6001 9.18881 15.6904 9.10083 15.7658C9.01402 15.8423 8.91009 15.9025 8.79547 15.9427C8.68086 15.9829 8.55797 16.0022 8.43441 15.9996H6.56548ZM7.50026 9.74328L12.1288 4.62458H2.8717L7.50026 9.74328Z" fill="white"/>
</svg>
